<svg version="1.1" id="Layer_1" xmlns="http://www.w3.org/2000/svg" xmlns:xlink="http://www.w3.org/1999/xlink" x="0px" y="0px"
	 width="100%" viewBox="0 0 512 512" enable-background="new 0 0 512 512" xml:space="preserve">
<path fill="#215012" opacity="1.000000" stroke="none" 
	d="
M513.000000,132.000000 
	C513.000000,214.354233 513.000000,296.708466 512.648743,379.676514 
	C510.862732,387.377472 509.496490,394.479309 507.981384,401.549225 
	C501.465881,431.952362 486.990509,457.923767 463.196045,477.989746 
	C438.054443,499.191772 408.130646,508.712921 375.662262,511.087769 
	C374.070068,511.204254 372.552399,512.339294 371.000000,513.000000 
	C295.645782,513.000000 220.291550,513.000000 144.314087,512.644897 
	C137.051117,511.214478 130.408905,510.154327 123.772110,509.061157 
	C90.665604,503.608032 61.749306,490.423431 39.054104,464.758759 
	C24.956047,448.816132 15.595499,430.614319 9.920641,410.344757 
	C5.193783,393.461273 2.952507,376.213898 2.903685,358.664215 
	C2.898428,356.774384 1.664162,354.888000 0.999999,353.000000 
	C1.000000,289.979095 1.000000,226.958206 1.357471,163.309326 
	C2.141451,160.806335 2.928607,158.933228 2.938470,157.056046 
	C3.033156,139.035141 5.417062,121.358147 9.970414,103.907631 
	C17.873360,73.619934 34.631691,49.178139 59.415905,30.544643 
	C82.788376,12.972533 110.071922,5.582861 138.840408,2.927552 
	C140.604553,2.764723 142.282135,1.664221 144.000000,0.999999 
	C219.020889,1.000000 294.041779,1.000000 369.687439,1.355686 
	C371.521210,2.129060 372.700043,2.738908 373.944000,2.934397 
	C385.080841,4.684589 396.382446,5.690135 407.344482,8.190686 
	C436.325409,14.801513 460.538971,29.769127 479.728180,52.414303 
	C496.736053,72.485298 505.555450,96.317123 510.053192,121.965508 
	C510.651550,125.377663 511.999298,128.658401 513.000000,132.000000 
M292.500000,48.000004 
	C245.237061,48.660393 197.973114,49.257595 150.711823,50.019592 
	C136.495987,50.248795 122.647057,52.781719 109.275482,57.785568 
	C81.561737,68.156479 64.162971,87.839844 55.950058,116.097031 
	C49.742355,137.455109 49.396469,159.502243 49.239658,181.330429 
	C48.847279,235.950058 49.393536,290.582123 50.163448,345.200714 
	C50.377842,360.409973 51.351460,375.854614 54.305038,390.728943 
	C60.887077,423.876404 80.120735,446.899719 112.677788,458.093658 
	C131.875031,464.694183 151.890823,465.329926 171.733932,465.774261 
	C206.316238,466.548645 240.928665,466.137726 275.527252,465.973724 
	C302.659119,465.845123 329.806824,465.812012 356.912476,464.799255 
	C370.268799,464.300201 383.887756,463.028076 396.791809,459.755493 
	C429.525421,451.454132 450.714691,430.547028 460.299377,397.865845 
	C466.091095,378.117645 466.684662,357.791626 466.780701,337.623932 
	C467.062256,278.503052 466.478424,219.375870 465.870972,160.254883 
	C465.757202,149.180298 464.744873,137.984497 462.808716,127.082329 
	C455.612793,86.563316 429.716095,60.912388 389.509644,52.792191 
	C367.655640,48.378498 345.504150,49.435818 323.487183,48.102364 
	C313.525909,47.499062 303.497803,48.000011 292.500000,48.000004 
z"/>
<path fill="#000000" opacity="1.000000" stroke="none" 
	d="
M143.531342,0.999999 
	C142.282135,1.664221 140.604553,2.764723 138.840408,2.927552 
	C110.071922,5.582861 82.788376,12.972533 59.415905,30.544643 
	C34.631691,49.178139 17.873360,73.619934 9.970414,103.907631 
	C5.417062,121.358147 3.033156,139.035141 2.938470,157.056046 
	C2.928607,158.933228 2.141451,160.806335 1.357471,162.840668 
	C1.000000,109.077545 1.000000,55.155087 1.000000,1.000000 
	C48.353973,1.000000 95.708328,1.000000 143.531342,0.999999 
z"/>
<path fill="#000000" opacity="1.000000" stroke="none" 
	d="
M0.999999,353.468658 
	C1.664162,354.888000 2.898428,356.774384 2.903685,358.664215 
	C2.952507,376.213898 5.193783,393.461273 9.920641,410.344757 
	C15.595499,430.614319 24.956047,448.816132 39.054104,464.758759 
	C61.749306,490.423431 90.665604,503.608032 123.772110,509.061157 
	C130.408905,510.154327 137.051117,511.214478 143.845428,512.644897 
	C96.402245,513.000000 48.804485,513.000000 1.000000,513.000000 
	C1.000000,459.979279 1.000000,406.958313 0.999999,353.468658 
z"/>
<path fill="#000000" opacity="1.000000" stroke="none" 
	d="
M371.468689,513.000000 
	C372.552399,512.339294 374.070068,511.204254 375.662262,511.087769 
	C408.130646,508.712921 438.054443,499.191772 463.196045,477.989746 
	C486.990509,457.923767 501.465881,431.952362 507.981384,401.549225 
	C509.496490,394.479309 510.862732,387.377472 512.648743,380.145172 
	C513.000000,424.262695 513.000000,468.525391 513.000000,513.000000 
	C465.979309,513.000000 418.958313,513.000000 371.468689,513.000000 
z"/>
<path fill="#000000" opacity="1.000000" stroke="none" 
	d="
M513.000000,131.531342 
	C511.999298,128.658401 510.651550,125.377663 510.053192,121.965508 
	C505.555450,96.317123 496.736053,72.485298 479.728180,52.414303 
	C460.538971,29.769127 436.325409,14.801513 407.344482,8.190686 
	C396.382446,5.690135 385.080841,4.684589 373.944000,2.934397 
	C372.700043,2.738908 371.521210,2.129060 370.156097,1.355686 
	C417.590454,1.000000 465.180908,1.000000 513.000000,1.000000 
	C513.000000,44.353958 513.000000,87.708321 513.000000,131.531342 
z"/>
<path fill="#000000" opacity="1.000000" stroke="none" 
	d="
M293.000000,48.000000 
	C303.497803,48.000011 313.525909,47.499062 323.487183,48.102364 
	C345.504150,49.435818 367.655640,48.378498 389.509644,52.792191 
	C429.716095,60.912388 455.612793,86.563316 462.808716,127.082329 
	C464.744873,137.984497 465.757202,149.180298 465.870972,160.254883 
	C466.478424,219.375870 467.062256,278.503052 466.780701,337.623932 
	C466.684662,357.791626 466.091095,378.117645 460.299377,397.865845 
	C450.714691,430.547028 429.525421,451.454132 396.791809,459.755493 
	C383.887756,463.028076 370.268799,464.300201 356.912476,464.799255 
	C329.806824,465.812012 302.659119,465.845123 275.527252,465.973724 
	C240.928665,466.137726 206.316238,466.548645 171.733932,465.774261 
	C151.890823,465.329926 131.875031,464.694183 112.677788,458.093658 
	C80.120735,446.899719 60.887077,423.876404 54.305038,390.728943 
	C51.351460,375.854614 50.377842,360.409973 50.163448,345.200714 
	C49.393536,290.582123 48.847279,235.950058 49.239658,181.330429 
	C49.396469,159.502243 49.742355,137.455109 55.950058,116.097031 
	C64.162971,87.839844 81.561737,68.156479 109.275482,57.785568 
	C122.647057,52.781719 136.495987,50.248795 150.711823,50.019592 
	C197.973114,49.257595 245.237061,48.660393 293.000000,48.000000 
M133.491989,300.980835 
	C141.034195,324.312836 155.012787,343.474731 173.653259,358.801422 
	C203.855408,383.634369 239.025757,393.262421 277.646454,387.639313 
	C311.587524,382.697571 339.871735,366.528534 361.042297,339.368744 
	C389.762238,302.523804 397.467072,261.128937 383.532990,216.624268 
	C371.715088,178.878540 346.748230,151.922104 310.542877,135.941528 
	C284.709473,124.539001 257.701813,121.970634 230.053436,128.023041 
	C199.346619,134.744949 174.174759,150.522949 154.473907,175.003769 
	C137.031830,196.677750 127.886162,221.630539 126.111717,249.212433 
	C124.991829,266.619873 127.252457,283.732941 133.491989,300.980835 
M425.773224,123.984779 
	C426.969788,105.471893 414.622955,90.236763 397.193909,89.093452 
	C380.243683,87.981552 364.795441,99.474144 363.732513,118.427673 
	C362.429718,141.659485 383.611969,157.362534 406.574219,149.032654 
	C417.627075,145.023041 423.655609,136.371307 425.773224,123.984779 
z"/>
<path fill="#215012" opacity="1.000000" stroke="none" 
	d="
M133.345428,300.613647 
	C127.252457,283.732941 124.991829,266.619873 126.111717,249.212433 
	C127.886162,221.630539 137.031830,196.677750 154.473907,175.003769 
	C174.174759,150.522949 199.346619,134.744949 230.053436,128.023041 
	C257.701813,121.970634 284.709473,124.539001 310.542877,135.941528 
	C346.748230,151.922104 371.715088,178.878540 383.532990,216.624268 
	C397.467072,261.128937 389.762238,302.523804 361.042297,339.368744 
	C339.871735,366.528534 311.587524,382.697571 277.646454,387.639313 
	C239.025757,393.262421 203.855408,383.634369 173.653259,358.801422 
	C155.012787,343.474731 141.034195,324.312836 133.345428,300.613647 
M284.703278,337.212158 
	C323.304626,324.868378 348.426971,283.919342 341.792328,244.157883 
	C334.066620,197.857559 291.359741,166.144302 245.543167,173.216141 
	C187.684586,182.146667 155.331909,245.628967 183.484299,297.218567 
	C202.229752,331.569855 245.395844,351.282318 284.703278,337.212158 
z"/>
<path fill="#215012" opacity="1.000000" stroke="none" 
	d="
M425.663239,124.406174 
	C423.655609,136.371307 417.627075,145.023041 406.574219,149.032654 
	C383.611969,157.362534 362.429718,141.659485 363.732513,118.427673 
	C364.795441,99.474144 380.243683,87.981552 397.193909,89.093452 
	C414.622955,90.236763 426.969788,105.471893 425.663239,124.406174 
z"/>
<path fill="#000000" opacity="1.000000" stroke="none" 
	d="
M284.337280,337.362488 
	C245.395844,351.282318 202.229752,331.569855 183.484299,297.218567 
	C155.331909,245.628967 187.684586,182.146667 245.543167,173.216141 
	C291.359741,166.144302 334.066620,197.857559 341.792328,244.157883 
	C348.426971,283.919342 323.304626,324.868378 284.337280,337.362488 
z"/>
</svg>