<svg version="1.1" id="Layer_1" xmlns="http://www.w3.org/2000/svg" xmlns:xlink="http://www.w3.org/1999/xlink" x="0px" y="0px"
	 width="100%" viewBox="0 0 512 512" enable-background="new 0 0 512 512" xml:space="preserve">
<path fill="#215012" opacity="1.000000" stroke="none" 
	d="
M1.000002,460.000000 
	C1.000000,324.976685 1.000000,189.953354 1.327702,54.327328 
	C2.174410,52.730095 2.844316,51.785206 3.190264,50.733734 
	C11.007210,26.975048 26.744831,11.146504 50.495262,3.250431 
	C51.771809,2.826032 52.836624,1.764788 54.000000,1.000001 
	C189.023331,1.000000 324.046661,1.000000 459.641174,1.341238 
	C461.215637,2.190356 462.172699,2.839060 463.228882,3.185450 
	C487.011658,10.985127 502.843018,26.733702 510.748688,50.493237 
	C511.173676,51.770454 512.234924,52.835949 513.000000,54.000000 
	C513.000000,188.689987 513.000000,323.379974 512.693909,458.715424 
	C511.904694,460.384735 511.287628,461.367401 510.958130,462.438538 
	C504.208344,484.381256 490.446838,499.912384 469.049286,508.564117 
	C465.942902,509.820160 463.012085,511.510590 460.000000,513.000000 
	C324.976685,513.000000 189.953354,513.000000 54.359783,512.659180 
	C52.322750,511.625885 50.906918,510.784119 49.381512,510.263336 
	C28.338579,503.079224 13.468517,489.400391 5.229559,468.623749 
	C4.052963,465.656647 2.421137,462.870117 1.000002,460.000000 
M407.505035,246.121933 
	C406.950531,244.732941 406.427856,243.330246 405.836700,241.957031 
	C398.570374,225.078354 387.385010,212.071732 369.762268,205.401031 
	C353.446655,199.225143 336.594574,198.619156 319.631012,201.226288 
	C303.404968,203.720062 289.019684,210.055618 278.741211,223.662308 
	C277.390167,225.450790 275.766296,227.033142 274.268768,228.710953 
	C273.844849,228.629684 273.420929,228.548401 272.997009,228.467133 
	C272.997009,224.081696 273.013519,219.696198 272.993561,215.310852 
	C272.952637,206.320724 269.719971,203.059891 260.601288,203.021088 
	C247.271118,202.964371 233.940521,202.984848 220.610168,203.008072 
	C209.715027,203.027039 207.005112,205.719833 207.004013,216.502136 
	C206.997681,278.821747 206.997955,341.141388 207.003769,403.460999 
	C207.004745,413.878967 209.776993,416.827515 220.278229,416.946075 
	C233.440262,417.094727 246.606339,417.083832 259.768616,416.946655 
	C269.049744,416.849945 272.987610,412.689240 272.992126,403.386658 
	C273.007843,371.060455 272.894806,338.733551 273.097839,306.408630 
	C273.134003,300.650452 273.813934,294.733643 275.284180,289.177948 
	C279.511566,273.203552 287.203735,259.920898 305.505157,257.443359 
	C321.802826,255.237122 336.449188,260.313232 342.621490,277.935760 
	C345.159119,285.181000 346.707153,293.145386 346.807343,300.807526 
	C347.249634,334.627655 346.989868,368.456787 347.008026,402.282684 
	C347.013947,413.382568 349.680023,415.990845 360.894897,415.997284 
	C375.058441,416.005432 389.222015,416.014038 403.385529,415.991943 
	C412.225586,415.978149 414.987396,413.238831 414.991211,404.434540 
	C415.007050,367.775940 415.048401,331.117249 414.977417,294.458771 
	C414.946045,278.251312 412.679840,262.345123 407.505035,246.121933 
M175.000000,394.490295 
	C174.999817,336.003143 175.002762,277.516022 174.997040,219.028885 
	C174.995743,205.816116 172.143433,203.009781 158.756973,203.001999 
	C146.759613,202.995010 134.762238,202.984818 122.764915,203.006760 
	C111.963554,203.026520 108.049469,206.801178 108.039078,217.799942 
	C107.980995,279.286316 107.987823,340.772827 108.036560,402.259216 
	C108.043968,411.608734 112.246239,416.514496 121.465546,416.809204 
	C135.114487,417.245514 148.796234,417.220276 162.447388,416.821960 
	C171.411133,416.560425 174.900589,412.363495 174.990021,403.482788 
	C175.016876,400.816956 174.997955,398.150665 175.000000,394.490295 
M104.853935,162.580841 
	C120.151817,187.711853 154.775574,191.603745 174.586792,167.987732 
	C186.530472,153.750229 188.242096,134.073471 178.575867,118.323723 
	C168.890488,102.542755 149.983551,94.783195 132.182297,98.728882 
	C105.462677,104.651314 89.569595,135.597107 104.853935,162.580841 
z"/>
<path fill="#000000" opacity="1.000000" stroke="none" 
	d="
M460.468658,513.000000 
	C463.012085,511.510590 465.942902,509.820160 469.049286,508.564117 
	C490.446838,499.912384 504.208344,484.381256 510.958130,462.438538 
	C511.287628,461.367401 511.904694,460.384735 512.693909,459.180420 
	C513.000000,476.926086 513.000000,494.852173 513.000000,513.000000 
	C495.646393,513.000000 478.291870,513.000000 460.468658,513.000000 
z"/>
<path fill="#000000" opacity="1.000000" stroke="none" 
	d="
M1.000002,460.468658 
	C2.421137,462.870117 4.052963,465.656647 5.229559,468.623749 
	C13.468517,489.400391 28.338579,503.079224 49.381512,510.263336 
	C50.906918,510.784119 52.322750,511.625885 53.894768,512.659180 
	C36.406567,513.000000 18.813131,513.000000 1.000000,513.000000 
	C1.000000,495.646393 1.000000,478.291840 1.000002,460.468658 
z"/>
<path fill="#000000" opacity="1.000000" stroke="none" 
	d="
M53.531342,1.000001 
	C52.836624,1.764788 51.771809,2.826032 50.495262,3.250431 
	C26.744831,11.146504 11.007210,26.975048 3.190264,50.733734 
	C2.844316,51.785206 2.174410,52.730095 1.327702,53.862312 
	C1.000000,36.406563 1.000000,18.813124 1.000000,1.000000 
	C18.353609,1.000000 35.708145,1.000000 53.531342,1.000001 
z"/>
<path fill="#000000" opacity="1.000000" stroke="none" 
	d="
M513.000000,53.531342 
	C512.234924,52.835949 511.173676,51.770454 510.748688,50.493237 
	C502.843018,26.733702 487.011658,10.985127 463.228882,3.185450 
	C462.172699,2.839060 461.215637,2.190356 460.106201,1.341238 
	C477.593445,1.000000 495.186890,1.000000 513.000000,1.000000 
	C513.000000,18.353611 513.000000,35.708145 513.000000,53.531342 
z"/>
<path fill="#000000" opacity="1.000000" stroke="none" 
	d="
M407.653412,246.486206 
	C412.679840,262.345123 414.946045,278.251312 414.977417,294.458771 
	C415.048401,331.117249 415.007050,367.775940 414.991211,404.434540 
	C414.987396,413.238831 412.225586,415.978149 403.385529,415.991943 
	C389.222015,416.014038 375.058441,416.005432 360.894897,415.997284 
	C349.680023,415.990845 347.013947,413.382568 347.008026,402.282684 
	C346.989868,368.456787 347.249634,334.627655 346.807343,300.807526 
	C346.707153,293.145386 345.159119,285.181000 342.621490,277.935760 
	C336.449188,260.313232 321.802826,255.237122 305.505157,257.443359 
	C287.203735,259.920898 279.511566,273.203552 275.284180,289.177948 
	C273.813934,294.733643 273.134003,300.650452 273.097839,306.408630 
	C272.894806,338.733551 273.007843,371.060455 272.992126,403.386658 
	C272.987610,412.689240 269.049744,416.849945 259.768616,416.946655 
	C246.606339,417.083832 233.440262,417.094727 220.278229,416.946075 
	C209.776993,416.827515 207.004745,413.878967 207.003769,403.460999 
	C206.997955,341.141388 206.997681,278.821747 207.004013,216.502136 
	C207.005112,205.719833 209.715027,203.027039 220.610168,203.008072 
	C233.940521,202.984848 247.271118,202.964371 260.601288,203.021088 
	C269.719971,203.059891 272.952637,206.320724 272.993561,215.310852 
	C273.013519,219.696198 272.997009,224.081696 272.997009,228.467133 
	C273.420929,228.548401 273.844849,228.629684 274.268768,228.710953 
	C275.766296,227.033142 277.390167,225.450790 278.741211,223.662308 
	C289.019684,210.055618 303.404968,203.720062 319.631012,201.226288 
	C336.594574,198.619156 353.446655,199.225143 369.762268,205.401031 
	C387.385010,212.071732 398.570374,225.078354 405.836700,241.957031 
	C406.427856,243.330246 406.950531,244.732941 407.653412,246.486206 
z"/>
<path fill="#000000" opacity="1.000000" stroke="none" 
	d="
M175.000000,394.987427 
	C174.997955,398.150665 175.016876,400.816956 174.990021,403.482788 
	C174.900589,412.363495 171.411133,416.560425 162.447388,416.821960 
	C148.796234,417.220276 135.114487,417.245514 121.465546,416.809204 
	C112.246239,416.514496 108.043968,411.608734 108.036560,402.259216 
	C107.987823,340.772827 107.980995,279.286316 108.039078,217.799942 
	C108.049469,206.801178 111.963554,203.026520 122.764915,203.006760 
	C134.762238,202.984818 146.759613,202.995010 158.756973,203.001999 
	C172.143433,203.009781 174.995743,205.816116 174.997040,219.028885 
	C175.002762,277.516022 174.999817,336.003143 175.000000,394.987427 
z"/>
<path fill="#000000" opacity="1.000000" stroke="none" 
	d="
M104.667847,162.260834 
	C89.569595,135.597107 105.462677,104.651314 132.182297,98.728882 
	C149.983551,94.783195 168.890488,102.542755 178.575867,118.323723 
	C188.242096,134.073471 186.530472,153.750229 174.586792,167.987732 
	C154.775574,191.603745 120.151817,187.711853 104.667847,162.260834 
z"/>
</svg>